<?xml version="1.0" encoding="UTF-8" standalone="no"?>
<!-- Created with Inkscape (http://www.inkscape.org/) -->

<svg
   xmlns:dc="http://purl.org/dc/elements/1.1/"
   xmlns:cc="http://creativecommons.org/ns#"
   xmlns:rdf="http://www.w3.org/1999/02/22-rdf-syntax-ns#"
   xmlns:svg="http://www.w3.org/2000/svg"
   xmlns="http://www.w3.org/2000/svg"
   xmlns:xlink="http://www.w3.org/1999/xlink"
   xmlns:sodipodi="http://sodipodi.sourceforge.net/DTD/sodipodi-0.dtd"
   xmlns:inkscape="http://www.inkscape.org/namespaces/inkscape"
   width="57.002mm"
   height="14.986mm"
   enable-background="new"
   version="1.1"
   viewBox="0 0 57.002 14.986"
   id="svg4099"
   sodipodi:docname="MACRO_logo.svg"
   inkscape:version="0.92.3 (2405546, 2018-03-11)">
  <sodipodi:namedview
     pagecolor="#ffffff"
     bordercolor="#666666"
     borderopacity="1"
     objecttolerance="10"
     gridtolerance="10"
     guidetolerance="10"
     inkscape:pageopacity="0"
     inkscape:pageshadow="2"
     inkscape:window-width="1920"
     inkscape:window-height="1017"
     id="namedview4101"
     showgrid="false"
     inkscape:zoom="3.1215097"
     inkscape:cx="133.83851"
     inkscape:cy="43.480725"
     inkscape:window-x="-8"
     inkscape:window-y="-8"
     inkscape:window-maximized="1"
     inkscape:current-layer="svg4099" />
  <defs
     id="defs3991">
    <linearGradient
       id="linearGradient21227">
      <stop
         stop-opacity=".31373"
         offset="0"
         id="stop3942" />
      <stop
         stop-opacity="0"
         offset="1"
         id="stop3944" />
    </linearGradient>
    <linearGradient
       x1="696.58"
       x2="718.67"
       y1="286.19"
       y2="286.19"
       gradientUnits="userSpaceOnUse"
       id="linearGradient3951">
      <stop
         offset="0"
         id="stop3947" />
      <stop
         offset="1"
         id="stop3949" />
    </linearGradient>
    <filter
       id="filter9180"
       color-interpolation-filters="sRGB">
      <feBlend
         in2="BackgroundImage"
         mode="multiply"
         id="feBlend3953" />
    </filter>
    <linearGradient
       id="linearGradient21183"
       x1="1570.9"
       x2="1572.8"
       y1="144.3"
       y2="149.57"
       gradientUnits="userSpaceOnUse">
      <stop
         stop-opacity="0"
         offset="0"
         id="stop3956" />
      <stop
         stop-opacity=".6549"
         offset="1"
         id="stop3958" />
    </linearGradient>
    <linearGradient
       id="linearGradient22094"
       x1="1567.9"
       x2="1568.9"
       y1="146.6"
       y2="149.04"
       gradientTransform="matrix(2.6485,0.70967,0,2.6485,-4143.7,-1480)"
       gradientUnits="userSpaceOnUse">
      <stop
         stop-opacity="0"
         offset="0"
         id="stop3961" />
      <stop
         stop-opacity=".65882"
         offset="1"
         id="stop3963" />
    </linearGradient>
    <radialGradient
       id="radialGradient21873"
       cx="798.61"
       cy="277.58"
       r="4.4637"
       gradientTransform="matrix(2.7911e-5,-12.472,7.1377,1.9126,-1949.5,9485.6)"
       gradientUnits="userSpaceOnUse"
       xlink:href="#linearGradient21227" />
    <radialGradient
       id="radialGradient13609-3-3-6-0-2-6-7-1-2-6-2"
       cx="798.61"
       cy="277.58"
       r="4.4637"
       gradientTransform="matrix(7.3848e-6,-3.3,1.8885,0.50603,993.72,2774.5)"
       gradientUnits="userSpaceOnUse"
       xlink:href="#linearGradient21227" />
    <radialGradient
       id="radialGradient13743-4-1-3-57-0-1-7-4-8-25"
       cx="798.61"
       cy="277.58"
       r="4.4637"
       gradientTransform="matrix(7.3848e-6,-3.3,1.8885,0.50603,1007.9,2774.5)"
       gradientUnits="userSpaceOnUse"
       xlink:href="#linearGradient21227" />
    <radialGradient
       id="radialGradient13609-3-5-8-9-7-0-5-9-1-0-0-8"
       cx="798.61"
       cy="277.58"
       r="4.4637"
       gradientTransform="matrix(7.3848e-6,-3.3,1.8885,0.50603,1022.2,2774.5)"
       gradientUnits="userSpaceOnUse"
       xlink:href="#linearGradient21227" />
    <radialGradient
       id="radialGradient13609-3-5-1-3-8-9-3-6-2-4-0-7-5"
       cx="798.61"
       cy="277.58"
       r="4.4637"
       gradientTransform="matrix(7.3848e-6,-3.3,1.8885,0.50603,1036.4,2774.5)"
       gradientUnits="userSpaceOnUse"
       xlink:href="#linearGradient21227" />
    <radialGradient
       id="radialGradient21875"
       cx="798.61"
       cy="277.58"
       r="4.4637"
       gradientTransform="matrix(8.76e-6,-3.9146,2.2402,0.60027,952.85,3239.2)"
       gradientUnits="userSpaceOnUse">
      <stop
         stop-opacity=".31414"
         offset="0"
         id="stop3971" />
      <stop
         stop-opacity="0"
         offset="1"
         id="stop3973" />
    </radialGradient>
    <linearGradient
       id="linearGradient21179"
       x1="1570.9"
       x2="1572.8"
       y1="144.3"
       y2="149.57"
       gradientUnits="userSpaceOnUse">
      <stop
         stop-opacity="0"
         offset="0"
         id="stop3976" />
      <stop
         stop-opacity=".65445"
         offset="1"
         id="stop3978" />
    </linearGradient>
    <linearGradient
       id="linearGradient21877"
       x1="1567.9"
       x2="1568.9"
       y1="146.6"
       y2="149.04"
       gradientTransform="matrix(2.6485,0.70967,0,2.6485,-4153.2,-1490.1)"
       gradientUnits="userSpaceOnUse">
      <stop
         stop-opacity="0"
         offset="0"
         id="stop3981" />
      <stop
         stop-opacity=".65969"
         offset="1"
         id="stop3983" />
    </linearGradient>
    <linearGradient
       id="linearGradient10301"
       x1="2580.6"
       x2="2837.2"
       y1="2482.3"
       y2="2482.3"
       gradientTransform="matrix(0.26458,0,0,0.26458,822.55,-385.81)"
       gradientUnits="userSpaceOnUse">
      <stop
         stop-color="#383838"
         offset="0"
         id="stop3986" />
      <stop
         stop-color="#00b1e4"
         offset="1"
         id="stop3988" />
    </linearGradient>
  </defs>
  <metadata
     id="metadata3993">
    <rdf:RDF>
      <cc:Work
         rdf:about="">
        <dc:format>image/svg+xml</dc:format>
        <dc:type
           rdf:resource="http://purl.org/dc/dcmitype/StillImage" />
        <dc:title></dc:title>
      </cc:Work>
    </rdf:RDF>
  </metadata>
  <flowRoot
     id="flowRoot4001"
     xml:space="preserve"
     style="font-size:40px;line-height:1.25;font-family:Lato;letter-spacing:0px;word-spacing:0px;fill:#000000;filter:url(#filter9180)"
     word-spacing="0px"
     letter-spacing="0px"
     font-size="40px"
     transform="translate(-1388,-333.4)"><flowRegion
       style="font-family:Lato"
       id="flowRegion3997"><rect
         id="rect3995"
         height="162.86"
         width="241.42999"
         y="286.81"
         x="202.86" /></flowRegion><flowPara
       id="flowPara3999" /></flowRoot>  <g
     style="filter:url(#filter9180)"
     id="g4003"
     transform="translate(-1336.622,-353.057)" />
  <g
     id="g7947"
     inkscape:export-xdpi="450"
     inkscape:export-ydpi="450">
    <g
       transform="translate(-1381.7063,-409.484)"
       style="stroke:#ffffff;stroke-linecap:round;stroke-linejoin:round;"
       id="g4011">
      <rect
         id="rect4005"
         style="fill:#d5d5d5;stroke-width:0.86094999;paint-order:markers stroke fill;enable-background:new;"
         ry="1.3432"
         rx="1.3432"
         height="22.424"
         width="16.148001"
         y="634.66998"
         x="1573.3"
         transform="matrix(0.5199,-0.16086,0,0.54422,564.03,319.86)" />
      <rect
         id="rect4007"
         style="fill:#e7e7e7;stroke-width:0.86094999;paint-order:markers stroke fill;enable-background:new;"
         ry="1.3432"
         rx="1.3432"
         height="22.424"
         width="16.148001"
         y="635.15002"
         x="1574.9"
         transform="matrix(0.5199,-0.16086,0,0.54422,564.54,319.86)" />
      <rect
         id="rect4009"
         style="fill:#ececec;stroke-width:0.61620998;paint-order:markers stroke fill;enable-background:new;"
         ry="1.3732001"
         rx="1.3732001"
         height="16.049"
         width="11.557"
         y="640.08002"
         x="1581.1"
         transform="matrix(0.50856,-0.15735,0,0.53234,582.91,322.17)" />
    </g>
    <g
       id="g4047"
       transform="translate(-1492.5863,-443.025)"
       style="">
      <rect
         id="rect4013"
         style="fill:#f4f4f4;stroke:#ffffff;stroke-width:0.86094999;stroke-linecap:round;stroke-linejoin:round;paint-order:markers stroke fill;enable-background:new;"
         ry="1.3432"
         rx="1.3432"
         height="22.424"
         width="16.148001"
         y="635.62"
         x="1576.5"
         transform="matrix(0.5199,-0.16086,0,0.54422,675.93,353.4)" />
      <g
         style=""
         id="g4043"
         transform="translate(0,-0.1949)">
        <path
           inkscape:connector-curvature="0"
           style="fill:#ffffff;enable-background:new;"
           id="path4015"
           d="m 1494.5,278.8 3.4722,-3.1548 2.4726,2.1158 2.5176,-3.6597 v -12.356 l -2.5176,3.6597 -2.4726,-2.1157 -3.4722,3.1548 -4.2086,-0.77831 v 12.356 z"
           transform="matrix(0.53234,0,0,0.53234,702.82,306.9)" />
        <ellipse
           id="ellipse4017"
           style="fill:#383838;paint-order:markers stroke fill;enable-background:new;"
           ry="0.51214999"
           rx="0.69388002"
           cy="1553.1"
           cx="2044.6"
           transform="matrix(0.394,-0.25389,0,0.53234,693.79,142.96)" />
        <path
           inkscape:connector-curvature="0"
           style="fill-opacity:0.13874003;enable-background:new;"
           id="path4019"
           d="M 0,17.775 V 64.519 L 13.135,52.585 V 5.841 Z"
           transform="matrix(0.14085,0,0,0.14085,1498.4,446.24)" />
        <path
           inkscape:connector-curvature="0"
           style="fill-opacity:0.13874003;enable-background:new;"
           id="path4021"
           d="M 22.489,13.844 V 60.588 L 32.0128,46.744 V 0 Z"
           transform="matrix(0.14085,0,0,0.14085,1498.4,446.24)" />
        <path
           inkscape:connector-curvature="0"
           style="fill:url(#linearGradient21183);enable-background:new;"
           id="path4023"
           d="m 1575.2,140.92 -3.5959,6.1907 -3.5317,-2.0756 2.1777,-3.1917 z"
           transform="matrix(0.37304,0.099956,0,0.37304,915.31,236.21)" />
        <path
           inkscape:connector-curvature="0"
           style="fill:url(#linearGradient22094);enable-background:new;"
           id="path4025"
           d="M 31.962,13.044 18.827,24.978 2.906,22.0337 26.467,10.5037 Z"
           transform="matrix(0.14085,0,0,0.14085,1495.8,445.22)" />
        <g
           style="fill:#383838;"
           id="g4041">
          <ellipse
             id="ellipse4027"
             style="paint-order:markers stroke fill;enable-background:new;"
             ry="1.9357001"
             rx="2.5546"
             cy="0.88972998"
             cx="2.5546"
             transform="matrix(0.10702,0.055757,0,0.14085,1500.4,450.85)" />
          <ellipse
             id="ellipse4029"
             style="paint-order:markers stroke fill;enable-background:new;"
             ry="1.9357001"
             rx="2.6224999"
             cy="4.3821998"
             cx="2.6224999"
             transform="matrix(0.10425,-0.062258,0,0.14085,1501.9,450.06)" />
          <ellipse
             id="ellipse4031"
             style="paint-order:markers stroke fill;enable-background:new;"
             ry="1.9357001"
             rx="2.5546"
             cy="0.88972998"
             cx="2.5546"
             transform="matrix(0.10702,0.026316,0,0.14085,1497.6,451.48)" />
          <ellipse
             id="ellipse4033"
             style="paint-order:markers stroke fill;enable-background:new;"
             ry="1.9357001"
             rx="2.6224999"
             cy="4.3821998"
             cx="2.6224999"
             transform="matrix(0.10425,-0.062258,0,0.14085,1501.9,451.47)" />
          <ellipse
             id="ellipse4035"
             style="paint-order:markers stroke fill;enable-background:new;"
             ry="1.9357001"
             rx="2.5546"
             cy="0.88972998"
             cx="2.5546"
             transform="matrix(0.10702,0.055757,0,0.14085,1500.8,449.44)" />
          <ellipse
             id="ellipse4037"
             style="paint-order:markers stroke fill;enable-background:new;"
             ry="1.9357001"
             rx="2.5546"
             cy="0.88972998"
             cx="2.5546"
             transform="matrix(0.10702,0.055757,0,0.14085,1500.8,452.75)" />
          <ellipse
             id="ellipse4039"
             style="paint-order:markers stroke fill;enable-background:new;"
             ry="0.51214999"
             rx="0.69388002"
             cy="1553.1"
             cx="2044.6"
             transform="matrix(0.394,-0.25389,0,0.53234,693.66,144.78)" />
        </g>
      </g>
      <path
         inkscape:connector-curvature="0"
         id="path4045"
         style="fill:url(#radialGradient21873);paint-order:markers stroke fill;enable-background:new;"
         d="m 3.9628,8.7955 27.898,-8.6317 c 2.1955,-0.67922 3.9632,0.81513 3.9632,3.3515 v 46.519 c 0,2.5358 -1.7677,5.1242 -3.9632,5.8035 L 3.9628,64.4694 C 1.7677,65.14877 0,63.65434 0,61.118 V 14.599 C 0,12.0631 1.7677,9.4747 3.9628,8.7954 Z"
         transform="matrix(0.14085,0,0,0.14085,1498.7,447.71)" />
    </g>
    <g
       transform="translate(-1381.7063,-409.484)"
       id="g4069"
       style="">
      <rect
         id="rect4049"
         style="fill:#f4f4f4;stroke:#ffffff;stroke-width:0.88015002;stroke-linecap:round;stroke-linejoin:round;paint-order:markers stroke fill;enable-background:new;"
         ry="1.3732001"
         rx="1.3731"
         height="22.924"
         width="16.507999"
         y="639.78998"
         x="1591.3"
         transform="matrix(0.50856,-0.15735,0,0.53234,582.91,321.98)" />
      <path
         inkscape:connector-curvature="0"
         id="path4051"
         style="fill:url(#radialGradient13609-3-3-6-0-2-6-7-1-2-6-2);paint-order:markers stroke fill;enable-background:new;"
         d="m 1510.6,267.07 7.3814,-2.2838 c 0.5809,-0.17971 1.0486,0.21567 1.0486,0.88674 v 12.308 c 0,0.67094 -0.4677,1.3558 -1.0486,1.5355 l -7.3814,2.2838 c -0.5808,0.17975 -1.0485,-0.21565 -1.0485,-0.88672 v -12.308 c 0,-0.67096 0.4677,-1.3558 1.0485,-1.5355 z"
         transform="matrix(0.53234,0,0,0.53234,591.94,273.17)" />
      <rect
         id="rect4053"
         style="fill:#f4f4f4;stroke:#ffffff;stroke-width:0.88015002;stroke-linecap:round;stroke-linejoin:round;paint-order:markers stroke fill;enable-background:new;"
         ry="1.3732001"
         rx="1.3731"
         height="22.924"
         width="16.507999"
         y="644.19"
         x="1606.2"
         transform="matrix(0.50856,-0.15735,0,0.53234,582.91,321.98)" />
      <path
         inkscape:connector-curvature="0"
         id="path4055"
         style="fill:url(#radialGradient13743-4-1-3-57-0-1-7-4-8-25);paint-order:markers stroke fill;enable-background:new;"
         d="m 1524.8,267.07 7.3814,-2.2838 c 0.5809,-0.17972 1.0485,0.21574 1.0485,0.88672 v 12.308 c 0,0.67095 -0.4676,1.3558 -1.0485,1.5356 l -7.3814,2.2838 c -0.5809,0.17972 -1.0485,-0.21575 -1.0485,-0.88673 v -12.308 c 0,-0.67097 0.4676,-1.3558 1.0485,-1.5355 z"
         transform="matrix(0.53234,0,0,0.53234,591.94,273.17)" />
      <rect
         id="rect4057"
         style="fill:#f4f4f4;stroke:#ffffff;stroke-width:0.88015002;stroke-linecap:round;stroke-linejoin:round;paint-order:markers stroke fill;enable-background:new;"
         ry="3.2181001"
         rx="1.3731"
         height="22.924"
         width="16.507999"
         y="648.59003"
         x="1621"
         transform="matrix(0.50856,-0.15735,0,0.53234,582.91,321.98)" />
      <path
         inkscape:connector-curvature="0"
         id="path4059"
         style="fill:url(#radialGradient13609-3-5-8-9-7-0-5-9-1-0-0-8);paint-order:markers stroke fill;enable-background:new;"
         d="m 1539,267.07 7.3813,-2.2838 c 0.5809,-0.17972 1.0486,0.21576 1.0486,0.88675 v 12.308 c 0,0.67095 -0.4677,1.3558 -1.0486,1.5355 l -7.3813,2.2838 c -0.5809,0.17973 -1.0486,-0.21577 -1.0486,-0.88676 v -12.308 c 0,-0.67097 0.4677,-1.3558 1.0486,-1.5355 z"
         transform="matrix(0.53234,0,0,0.53234,591.94,273.17)" />
      <rect
         id="rect4061"
         style="fill:#f4f4f4;stroke:#ffffff;stroke-width:0.88015002;stroke-linecap:round;stroke-linejoin:round;paint-order:markers stroke fill;enable-background:new;"
         ry="1.3732001"
         rx="1.3019"
         height="22.924"
         width="16.507999"
         y="652.98999"
         x="1636"
         transform="matrix(0.50856,-0.15735,0,0.53234,582.91,321.98)" />
      <path
         inkscape:connector-curvature="0"
         id="path4063"
         style="fill:url(#radialGradient13609-3-5-1-3-8-9-3-6-2-4-0-7-5);paint-order:markers stroke fill;enable-background:new;"
         d="m 1553.2,267.07 7.3813,-2.2838 c 0.5808,-0.17975 1.0486,0.21578 1.0486,0.88675 v 12.308 c 0,0.67095 -0.4677,1.3558 -1.0486,1.5355 l -7.3813,2.2838 c -0.5809,0.17973 -1.0487,-0.2158 -1.0487,-0.88677 v -12.308 c 0,-0.67097 0.4677,-1.3558 1.0487,-1.5355 z"
         transform="matrix(0.53234,0,0,0.53234,591.94,273.17)" />
      <rect
         id="rect4065"
         style="fill:#f4f4f4;stroke:#ffffff;stroke-width:0.88015002;stroke-linecap:round;stroke-linejoin:round;paint-order:markers stroke fill;enable-background:new;"
         ry="1.3732001"
         rx="1.3019"
         height="22.924"
         width="16.507999"
         y="657.40997"
         x="1650.9"
         transform="matrix(0.50856,-0.15735,0,0.53234,582.91,321.98)" />
      <path
         inkscape:connector-curvature="0"
         id="path4067"
         style="fill:url(#radialGradient21875);paint-order:markers stroke fill;enable-background:new;"
         d="m 1565.9,264.81 8.7559,-2.7091 c 0.6891,-0.2132 1.2439,0.25595 1.2439,1.0519 v 14.6 c 0,0.79591 -0.5548,1.6083 -1.2439,1.8215 l -8.7559,2.7091 c -0.6891,0.2132 -1.2439,-0.25595 -1.2439,-1.0519 v -14.6 c 0,-0.79592 0.5546,-1.6084 1.2439,-1.8215 z"
         transform="matrix(0.53234,0,0,0.53234,591.94,273.17)" />
    </g>
    <g
       id="g4087"
       transform="translate(-1492.5863,-443.032)"
       style="">
      <g
         style=""
         id="g4079">
        <rect
           id="rect4071"
           style="fill:#f4f4f4;stroke:#ffffff;stroke-width:0.86172998;stroke-linecap:round;stroke-linejoin:round;paint-order:markers stroke fill;enable-background:new;"
           ry="1.3412"
           rx="1.3016"
           height="22.444"
           width="16.162001"
           y="662.07001"
           x="1666"
           transform="matrix(0.50746,-0.1611,0,0.54503,695.62,353.27)" />
        <path
           inkscape:connector-curvature="0"
           style="fill:url(#linearGradient21179);enable-background:new;"
           id="path4073"
           d="m 1575.2,140.92 -3.5959,6.1907 -3.5317,-2.0756 2.1777,-3.1917 z"
           transform="matrix(0.37304,0.099956,0,0.37304,960.92,236.15)" />
        <path
           inkscape:connector-curvature="0"
           style="fill:#ffffff;enable-background:new;"
           id="path4075"
           d="m 1580.2,278.7 3.4753,-3.1576 2.4749,2.1177 2.5198,-3.663 v -12.368 l -2.5198,3.663 -2.4749,-2.1177 -3.4753,3.1576 -4.2124,-0.77901 v 12.368 z"
           transform="matrix(0.53234,0,0,0.53234,702.82,306.9)" />
        <path
           inkscape:connector-curvature="0"
           style="fill:#00b1e4;enable-background:new;"
           id="path4077"
           d="m 1580.2,269.7 c 0.851,-0.2549 1.2432,-1.4995 2.039,-2.3141 0.3373,-0.34528 0.9073,-0.27509 1.4363,-0.46284 0.9818,-0.34842 1.9731,0.57872 2.4749,1.4743 0.6169,1.1011 0.1166,1.5517 0.627,1.8732 2.24,1.4107 0.1717,3.2576 -0.627,3.0633 -1.6068,-0.39081 -1.5939,0.66122 -2.4749,0.77378 -1.2884,0.16461 -2.333,-1.1185 -3.4753,-1.8383 -0.7715,-0.48617 -1.8164,-1.1094 -1.9007,-1.6731 -0.1565,-1.0463 1.3497,-0.73115 1.9007,-0.89622 z"
           transform="matrix(0.53234,0,0,0.53234,702.82,306.9)" />
      </g>
      <path
         inkscape:connector-curvature="0"
         style="fill-opacity:0.13874003;enable-background:new;"
         id="path4081"
         d="m 1580.2,266.33 v 12.368 l 3.4753,-3.1576 v -12.368 z"
         transform="matrix(0.53234,0,0,0.53234,702.82,306.9)" />
      <path
         inkscape:connector-curvature="0"
         style="fill-opacity:0.13874003;enable-background:new;"
         id="path4083"
         d="m 1586.2,265.29 v 12.368 l 2.5198,-3.663 v -12.368 z"
         transform="matrix(0.53234,0,0,0.53234,702.82,306.9)" />
      <path
         inkscape:connector-curvature="0"
         style="fill:url(#linearGradient21877);enable-background:new;"
         id="path4085"
         d="M 22.489,2.9771 9.354,14.9111 -6.567,11.9668 16.994,0.4368 Z"
         transform="matrix(0.14085,0,0,0.14085,1542.7,446.58)" />
    </g>
    <path
       inkscape:connector-curvature="0"
       id="path4089"
       style="color:#000000;font-variant-ligatures:normal;font-variant-position:normal;font-variant-caps:normal;font-variant-numeric:normal;font-variant-alternates:normal;font-feature-settings:normal;text-indent:0;text-decoration:none;text-decoration-line:none;text-decoration-style:solid;text-decoration-color:#000000;text-transform:none;text-orientation:mixed;dominant-baseline:auto;white-space:normal;shape-padding:0;isolation:auto;mix-blend-mode:normal;solid-color:#000000;fill:url(#linearGradient10301);paint-order:markers stroke fill;color-rendering:auto;image-rendering:auto;shape-rendering:auto;enable-background:accumulate"
       dominant-baseline="auto"
       d="m 1516,263.69 c -0.07,0.007 -0.1418,0.0219 -0.2149,0.0444 -0.5852,0.18074 -1.0821,0.8196 -1.0821,1.4299 0,0.142 0.029,0.26712 0.078,0.37618 l -3.2752,4.2866 c -0.1273,-0.0143 -0.2658,-0.002 -0.4098,0.0429 -0.1843,0.0569 -0.3574,0.1629 -0.5111,0.29559 l -3.2236,-2.2272 c 0.079,-0.17648 0.1292,-0.36235 0.1292,-0.54677 0,-0.61026 -0.4973,-0.94191 -1.0826,-0.76118 -0.5852,0.18074 -1.0806,0.8191 -1.0806,1.4294 0,0.47633 0.3035,0.78026 0.7142,0.80669 v 2.635 c -0.4107,0.28014 -0.7142,0.77118 -0.7142,1.2475 0,0.47633 0.3035,0.7792 0.7142,0.80513 v 2.6345 c -0.4108,0.28011 -0.7142,0.77163 -0.7142,1.248 0,0.61027 0.4954,0.94295 1.0806,0.76222 0.5853,-0.18074 1.0826,-0.8196 1.0826,-1.4299 0,-0.4759 -0.304,-0.77991 -0.7147,-0.80668 v -2.635 c 0.4107,-0.27988 0.7147,-0.77002 0.7147,-1.2459 0,-0.4759 -0.304,-0.77991 -0.7147,-0.80668 v -2.635 c 0.051,-0.0344 0.098,-0.0727 0.1452,-0.11316 l 3.2236,2.2278 c -0.079,0.17661 -0.1292,0.36259 -0.1292,0.54727 0,0.61026 0.4953,0.94297 1.0806,0.76221 0.5851,-0.18071 1.0821,-0.82013 1.0821,-1.4304 0,-0.14158 -0.029,-0.26633 -0.078,-0.37518 l 3.2753,-4.2876 c 0.014,0.002 0.029,-8.7e-4 0.043,0 v 2.6345 c -0.4114,0.28022 -0.7157,0.772 -0.7157,1.2485 0,0.4765 0.3043,0.77902 0.7157,0.8046 v 2.6345 c -0.4114,0.28022 -0.7157,0.77203 -0.7157,1.2485 0,0.61029 0.4969,0.94245 1.0821,0.76171 0.5853,-0.18074 1.0811,-0.8191 1.0811,-1.4294 0,-0.47593 -0.3029,-0.78031 -0.7132,-0.80719 v -2.635 c 0.4103,-0.27972 0.7132,-0.76946 0.7132,-1.2454 0,-0.47593 -0.3029,-0.78031 -0.7132,-0.80719 v -2.6381 c 0.1826,-0.12496 0.3459,-0.28673 0.4682,-0.47593 0.1521,-0.23535 0.245,-0.50485 0.245,-0.76843 0,-0.53398 -0.3792,-0.85527 -0.8662,-0.80616 z m 9.5349,0.72554 c -0.07,0.007 -0.1413,0.0214 -0.2145,0.0439 -0.5854,0.17987 -1.0811,0.81976 -1.0811,1.4299 0,0.27313 0.1029,0.48638 0.2651,0.62735 l -1.4459,3.3357 c -0.028,0.006 -0.055,0.008 -0.083,0.0171 -0.5853,0.17983 -1.081,0.81766 -1.081,1.4278 0,0.27334 0.1031,0.48699 0.2656,0.62839 l -1.4454,3.3341 c -0.028,0.006 -0.054,0.008 -0.082,0.0171 -0.5854,0.17986 -1.0831,0.82026 -1.0831,1.4304 0,0.61015 0.4977,0.9426 1.0831,0.76274 0.5853,-0.17984 1.0806,-0.81767 1.0806,-1.4278 0,-0.27352 -0.103,-0.48752 -0.2656,-0.62891 l 1.4454,-3.3336 c 0.028,-0.006 0.054,-0.008 0.083,-0.0171 0.4548,-0.13973 0.8521,-0.55735 1.0083,-1.0227 l 2.6711,-0.82113 c 0.1561,0.36949 0.554,0.54332 1.0087,0.40359 0.061,-0.0188 0.1206,-0.0451 0.1793,-0.0734 l 1.4129,2.3921 c -0.201,0.26038 -0.3282,0.57618 -0.3282,0.88469 0,0.61013 0.4952,0.94363 1.0806,0.76377 0.5853,-0.17984 1.0811,-0.81767 1.0811,-1.4278 0,-0.61013 -0.4958,-0.94568 -1.0811,-0.76584 -0.061,0.0186 -0.1191,0.045 -0.1773,0.0729 l -1.4138,-2.3926 c 0.2004,-0.26017 0.3271,-0.5756 0.3271,-0.88366 0,-0.61015 -0.4952,-0.94313 -1.0806,-0.76327 -0.06,0.0185 -0.1188,0.0446 -0.1767,0.0724 l -1.4139,-2.3932 c 0.201,-0.25987 0.3282,-0.57515 0.3282,-0.88365 0,-0.53388 -0.3792,-0.85723 -0.8661,-0.80926 z m 29.636,0.006 c -0.07,0.007 -0.1413,0.021 -0.2145,0.0434 -0.4546,0.13899 -0.8507,0.55486 -1.0066,1.0191 l -2.6727,0.81751 c -0.1562,-0.3692 -0.5539,-0.54213 -1.0087,-0.40307 -0.5855,0.17899 -1.0796,0.81574 -1.0796,1.4258 0,0.47647 0.3027,0.78179 0.7137,0.80926 v 2.634 c -0.411,0.27874 -0.7137,0.76946 -0.7137,1.2459 0,0.47649 0.3027,0.78078 0.7137,0.80772 v 2.634 c -0.411,0.27874 -0.7137,0.76946 -0.7137,1.2459 0,0.61002 0.4941,0.94483 1.0796,0.76586 0.5854,-0.17899 1.0815,-0.81626 1.0815,-1.4263 0,-0.47548 -0.3029,-0.78084 -0.7131,-0.80925 v -2.6355 c 0.293,-0.19902 0.5285,-0.50424 0.6403,-0.83717 l 2.6722,-0.81698 c 0.1556,0.3696 0.5521,0.54322 1.0071,0.4041 0.061,-0.0188 0.1209,-0.0451 0.1799,-0.0734 l 1.4133,2.3947 c -0.201,0.26014 -0.3286,0.57576 -0.3286,0.88419 0,0.61002 0.4962,0.94379 1.0816,0.76483 0.5855,-0.17899 1.0795,-0.81576 1.0795,-1.4258 0,-0.61002 -0.494,-0.94639 -1.0795,-0.7674 -0.061,0.0188 -0.121,0.0451 -0.1799,0.0734 l -1.4133,-2.3936 c 0.201,-0.25964 0.3286,-0.5747 0.3286,-0.88315 0,-0.14195 -0.029,-0.26697 -0.078,-0.37622 l 0.9322,-1.217 c 0.1274,0.0148 0.2661,0.003 0.4104,-0.0414 0.5855,-0.17896 1.0795,-0.8178 1.0795,-1.4278 0,-0.61003 -0.494,-0.94433 -1.0795,-0.76534 -0.1849,0.0565 -0.3584,0.16195 -0.5127,0.29456 l -0.8805,-0.61134 c 0.079,-0.17577 0.1286,-0.36079 0.1286,-0.54468 0,-0.53374 -0.3799,-0.85635 -0.8671,-0.80872 z m 14.85,0.19119 c -0.07,0.006 -0.1413,0.0205 -0.2145,0.0424 -0.4557,0.13642 -0.8535,0.55081 -1.0092,1.0149 l -1.4976,0.44804 c -0.01,-0.013 -0.01,-0.0283 -0.014,-0.0408 -0.1668,-0.34393 -0.5559,-0.50104 -0.9953,-0.36949 -0.5859,0.17542 -1.081,0.80954 -1.081,1.419 0,0.14269 0.029,0.26932 0.078,0.3793 l -0.9292,1.2082 c -0.1277,-0.0158 -0.2673,-0.005 -0.4123,0.0388 -0.5859,0.17539 -1.0811,0.81005 -1.0811,1.4195 0,0.47628 0.3039,0.78415 0.7157,0.81391 v 2.5885 c -0.4118,0.27585 -0.7157,0.76398 -0.7157,1.2402 0,0.60949 0.4952,0.94745 1.0811,0.77205 0.1722,-0.0516 0.3348,-0.14599 0.4811,-0.26458 l 0.9105,0.6382 c -0.079,0.17497 -0.1281,0.35941 -0.1281,0.54311 0,0.6095 0.4951,0.94747 1.081,0.77206 0.4557,-0.13645 0.854,-0.55129 1.0098,-1.0154 l 1.4971,-0.44855 c 0.1556,0.37106 0.5534,0.5478 1.0092,0.41132 0.5859,-0.17541 1.0831,-0.81055 1.0831,-1.42 0,-0.14293 -0.03,-0.26943 -0.079,-0.37931 l 0.9653,-1.2537 c 0.1178,0.01 0.2432,-4.5e-4 0.3746,-0.0398 0.5859,-0.17541 1.0816,-0.81007 1.0816,-1.4195 0,-0.47569 -0.3031,-0.78142 -0.7141,-0.81132 v -2.59 c 0.411,-0.27657 0.7141,-0.76512 0.7141,-1.2408 0,-0.6095 -0.4957,-0.94745 -1.0816,-0.77203 -0.1842,0.0551 -0.3568,0.15901 -0.5105,0.2899 l -0.8796,-0.61547 c 0.08,-0.17568 0.1292,-0.36105 0.1292,-0.54517 0,-0.53332 -0.3809,-0.85802 -0.8686,-0.81341 z m -26.772,0.009 c -0.07,0.006 -0.1417,0.0197 -0.215,0.0414 -0.456,0.13467 -0.8533,0.5479 -1.0087,1.0113 l -1.4971,0.4413 c -0.1563,-0.37079 -0.5542,-0.54848 -1.0098,-0.41391 -0.5861,0.17311 -1.0805,0.80573 -1.0805,1.4149 0,0.0674 0.01,0.13023 0.02,0.19069 l -1.8557,1.7849 c -0.1729,-0.0661 -0.3801,-0.073 -0.5994,-0.008 -0.5862,0.17314 -1.0827,0.80624 -1.0827,1.4154 0,0.47538 0.3038,0.78285 0.7152,0.81442 v 2.5895 c -0.4114,0.27459 -0.7152,0.76123 -0.7152,1.2366 0,0.60918 0.4965,0.94933 1.0827,0.77618 0.2415,-0.0713 0.4654,-0.22331 0.648,-0.41701 l 1.8335,0.68056 c -0.027,0.1033 -0.046,0.20781 -0.046,0.31213 0,0.60918 0.4944,0.95139 1.0805,0.77825 0.4557,-0.13457 0.8535,-0.54869 1.0098,-1.0123 l 1.5446,-0.4558 c 0.1559,0.37116 0.5528,0.55049 1.0082,0.416 0.5861,-0.17314 1.0826,-0.8083 1.0826,-1.4175 0,-0.60915 -0.4965,-0.9493 -1.0826,-0.77616 -0.4561,0.1347 -0.8533,0.54822 -1.0087,1.0118 l -1.5436,0.45577 c -0.1559,-0.37155 -0.5542,-0.54964 -1.0103,-0.41494 -0.256,0.0756 -0.4915,0.24143 -0.679,0.45214 l -1.8128,-0.67281 c 0.035,-0.11731 0.058,-0.23645 0.058,-0.35554 0,-0.47562 -0.3041,-0.78312 -0.7157,-0.81442 v -2.589 c 0.4117,-0.27448 0.7157,-0.76197 0.7157,-1.2376 0,-0.0685 -0.01,-0.13195 -0.02,-0.19328 l 1.8537,-1.7823 h 5e-4 c 0.1728,0.0666 0.3797,0.0742 0.5994,0.009 0.4559,-0.13467 0.8538,-0.54832 1.0098,-1.0118 l 1.4971,-0.44235 c 0.1554,0.37166 0.5527,0.55015 1.0087,0.41547 0.5862,-0.17317 1.0826,-0.80624 1.0826,-1.4154 0,-0.53303 -0.3799,-0.86014 -0.8676,-0.81754 z m 10.7,1.6314 c 0.1557,0.36981 0.5523,0.54419 1.0071,0.40513 0.1852,-0.0566 0.3588,-0.16243 0.5132,-0.29559 l 0.8795,0.61081 c -0.079,0.17555 -0.1281,0.36079 -0.1281,0.54467 0,0.14217 0.029,0.26739 0.078,0.37672 l -0.9322,1.2165 c -0.1274,-0.0148 -0.266,-0.003 -0.4104,0.0413 -0.4544,0.13896 -0.8506,0.55555 -1.0066,1.0201 l -2.6732,0.81701 c -0.1121,-0.26416 -0.3473,-0.42572 -0.6398,-0.44596 v -2.6355 c 0.2926,-0.19915 0.5278,-0.5048 0.6398,-0.83767 z m 14.848,0.18343 c 0.1559,0.37082 0.5533,0.54819 1.0087,0.41188 0.1845,-0.0552 0.3574,-0.15997 0.5116,-0.29146 l 0.879,0.6165 c -0.079,0.17492 -0.1277,0.35949 -0.1277,0.54311 0,0.4757 0.3032,0.78298 0.7142,0.81338 v 2.5895 c -0.411,0.27606 -0.7142,0.76406 -0.7142,1.2397 0,0.15542 0.033,0.29215 0.091,0.40825 l -0.9426,1.2252 c -0.063,-0.008 -0.1286,-0.009 -0.1963,-0.003 -0.07,0.006 -0.1413,0.0205 -0.2145,0.0424 -0.4555,0.13639 -0.8529,0.55102 -1.0087,1.0149 h -5e-4 l -1.4976,0.44855 c -0.01,-0.0131 -0.01,-0.0287 -0.014,-0.0414 -0.1668,-0.3439 -0.5559,-0.50101 -0.9953,-0.36946 -0.1841,0.0551 -0.3568,0.15907 -0.5105,0.2899 l -0.8966,-0.62838 c 0.089,-0.1851 0.1442,-0.38227 0.1442,-0.57828 0,-0.47587 -0.3034,-0.78163 -0.7147,-0.81131 v -2.5895 c 0.4113,-0.27649 0.7147,-0.76589 0.7147,-1.2418 0,-0.14166 -0.029,-0.26691 -0.078,-0.37619 l 0.9307,-1.2092 c 0.1273,0.0156 0.2656,0.004 0.4098,-0.0388 0.4553,-0.13632 0.8532,-0.55174 1.0093,-1.016 z m -43.299,0.14314 1.4128,2.3932 c -0.1128,0.14565 -0.1999,0.30882 -0.2568,0.4785 l -2.6711,0.82013 c -0.045,-0.10613 -0.1109,-0.19405 -0.1918,-0.26459 l 1.4475,-3.3373 c 0.027,-0.006 0.053,-0.008 0.081,-0.0165 0.061,-0.0187 0.1198,-0.0453 0.1783,-0.0734 z"
       transform="matrix(0.53234,0,0,0.53234,-789.7663,-136.314)" />
    <rect
       id="rect4091"
       style="fill:none;paint-order:markers stroke fill;"
       ry="0.24341001"
       rx="0.24341001"
       height="26.594"
       width="106.55"
       y="256.87"
       x="1483.5"
       transform="matrix(0.53234,0,0,0.53234,-789.7663,-136.314)" />
    <rect
       transform="scale(0.26458)"
       x="0.1596"
       width="215.28"
       height="56.610001"
       style="fill:none;paint-order:markers stroke fill;enable-background:new"
       id="rect4095"
       y="0" />
  </g>
</svg>
